
<svg version="1.1" id="Capa_1" xmlns="http://www.w3.org/2000/svg" xmlns:xlink="http://www.w3.org/1999/xlink" x="0px" y="0px"
	 viewBox="-56 179.5 482.4 482.4" style="enable-background:new -56 179.5 482.4 482.4;" xml:space="preserve">
<g>
	<path d="M-36.4,271.2c-13.5,23-19.9,49.2-19.6,75.3c0.4,37.1,14.1,74.1,39.5,101.7c37.8,41.1,98.9,52.9,152.1,56.3
		c7.4,0.5,14.7,2.1,15.7,10.6c1.9,16.2,0.9,34.5,3.6,49.3c-13.4,10.8-34,3.5-50,8.7c-7.5,2.4-10.9,9.1-17,11.2
		c-9.7,3.3-22.5-2.5-27.9-0.4c-5.5,2.1-2.3,13,1.4,14.1c4.9,0.1,10.5-4.5,15.1-5.7c8.5-2.3,19-2.9,20.4,2.5c2.1,8-19.2,20.6-20.2,25
		c-0.9,4,3,11.2,6.5,11.2c5.8-0.1,6.9-5.8,9-11.6c2-5.7,5.8-17.2,10.5-16c14.9,3.9-3.2,31.8,5.1,34c5.9,1,10-2,9.8-4.9
		c-0.3-4.5-6.5-22.2,0-24.3c4.8-1.6,15.3,17.3,20.6,19c6.3,2.1,8.2-2.5,8.8-6c1.2-7.1-35.6-16.8-26-22c9.5-5.2,19.7,4.9,24.8,4
		c5.2-0.9,6.2-4.2,2.2-9.4c-4-5.2-32.8,3.7-23.6-10.8c4.9-7.7,38.7-0.2,52.2-4.3c13.9-4.2,6.8-57.8,13-75.3
		c3.1-8.7,13.2-10.1,21.1-11.7c36.9-7.3,71.6-28.1,97.5-55.2c3.5-3.6,7.1-9.4,12.9-8.7c11.9,1.4,9,29.4,16.7,33.3
		c14.7,1,22.3-21.2,34.8-23.2c6.2-1,13.1-0.1,18.7,1.4s7.7,13.1,16.8,10.2c5.5-10.5-10.1-7.4-12.3-13.8c-1.3-3.9,0-6.8,1.6-10.8
		c7.3-6.4,19.9,6.2,21.6-3c2-10.7-14.2-1.5-22.5-2.2c-6.1-4.3-4.6-6.3-2-9.2c3.1-3.5,8.4-7.7,10-11.2c1-2,2.3-7.3-3.7-7
		c-8.6,0.4-5.4,19.6-15.9,18.1c-10.9-1.5,1.2-18.3,0.1-22.3c-1.7-6.2-6.6-4.9-10.2-1.6c-3.5,3.4,8.5,27.2-4.3,25.4
		c-5-0.7-3.9-9.1-6.7-14.8c-3.1-3.4-8.2-1.3-7.8,3.9c3.3,5,7.1,6.3,8.3,12.3c3.3,17.2-12.1,30.7-22.8,33.4
		c-1.4-19.1-6.2-33.8-5.8-50.7c0.6-24.4,24.2-23.9,40.6-31.9c17.3-8.5,29.3-23.2,38.4-40.6c5.1-9.8,12.7-24.4,11.6-34.8
		c-1.2-11.6-14.8-13.4-23.2-12.3c-32,4-64.2,14.7-77.5,37.9c-7.9,13.6-8.7,43.3-23.9,48.5c-4.3,1.5-21,1-26.1,2.9
		c-4,1.5-7.3,6.5-12.3,8.7c-10.9,4.9-28.9,4.1-37.9-2.7c-4.8-3.7-16.3-23.3-5-24.9c1.8-0.2,16.3,6.4,15.3-3.5
		c-1.1-9.8-14.4-0.7-17.7-1c-3.2-0.2-6.1-2.3-5.7-6.4c0.6-6,10-6.5,11.8-9.3c1.8-2.8-0.4-7.9-3.6-8.7c-7.3-1.8-8.9,9.2-11.6,14
		c-2,1.4-3.9,1.6-6.1,0.8c-5.4-6.1-0.2-23.6-4.5-24.9c-4.3-1.3-9.9-0.2-11,3.7c-1.7,6,13.7,20,8.6,23.8c-5.1,3.8-15.9-16.7-21-18.1
		c-4.9-1.3-9.3,4.4-7.2,8c2.1,3.6,21.1,7,23.9,16.7c-1.2,3.1-6.4,2.1-9.1,1.2c-3.9-0.9-7.9-4-9.8-1.2c-2.8,4.1-1.3,8.5,0.1,9.3
		c3,1.7,11.4-4.7,16.5-3.5c5,1.2,14.4,13.7,20.3,19.6c6.7,6.7,13.7,15.9,21.7,18.8c6.4,2.3,12.1-0.1,19.6,4.3
		c7.6,4.5-6.6,18.1-9.7,21.2c-9.2,9.2-19.6,15-31.3,20.7c-3.5,1.7-11.2,3.4-13.8,6.2c4.6-5.1,9.6-9.7,13.8-16.7
		c3.6-6.2,8.4-16.8,6.5-23.2c-4.7-15.3-39.3-9.4-54-15.5c-2.9-1.5-5-7.2-1.4-11.1c5-5.4,12.7-3.3,16.3-7.5c3.5-4.1,0.1-9-2.9-10.1
		c-4.1-0.9-6.2,5.9-9.1,8.7c-2.9,2.9-6.6,1.7-6.4-4.4c0.2-6.1,8.1-14,8.7-19.4c0.4-3.3-1.1-9.9-9.1-6.6c-2.5,2.1-2.5,7.5-2.6,12.5
		c0,2.6-2,17.8-4.5,18.3c-13.7,2.9-3.9-33.4-15.1-32c-1.2,0.2-6.5,0.4-8.5,6.3c-2.3,7,22.6,29.3,10.4,32.6
		c-6.2-0.1-12.5-2.4-16.3-6.6c-5.8-6.3-9.7-7.5-12.5-5.4c-6.8,5.2-5.1,10.4-2.7,12.1c4,2.9,10.7,1.4,17.2,2.4
		c7.9,1.1,15,2.4,15.1,7.6c0.1,5.3-2.5,6.1-6.7,8.7c-3.7,2.2-15.8,1.5-16.1,6.5c-0.2,3.8,3.3,5.8,5.1,5.8c5.1,0,7.8-4.8,11.7-7.1
		c13.1-7.8,24-2.6,30.3-2.1c11.1,0.8,23.1,4.2,27.9,9.9c-6.1,8.9-14.8,17.7-23.9,26.8c-8.4,8.4-16.5,20.1-26.8,24.6
		c-23.4,10.2-43.9,16.2-69.8,12.5c-23.8-3.4-46.8-13.3-65.2-28.8c-30.1-25.2-47.6-64.8-46-104c1.5-39.2,22.1-77.3,54.1-100
		c36.5-26,84.3-31.8,127.8-25.6c-22.9-4.3-47.5-5-70.6-2.3c-24,2.7-47.8,10.1-67.9,23.6C-13.2,239.8-26.5,254.5-36.4,271.2z"/>
</g>
</svg>
