<?xml version="1.0" encoding="iso-8859-1"?>
<!-- Generator: Adobe Illustrator 19.0.0, SVG Export Plug-In . SVG Version: 6.00 Build 0)  -->
<svg version="1.1" xmlns="http://www.w3.org/2000/svg" xmlns:xlink="http://www.w3.org/1999/xlink" x="0px" y="0px"
	 viewBox="0 0 612 792" style="enable-background:new 0 0 612 792;" xml:space="preserve">
<g id="Layer_1" style="display:none;">
	<g id="XMLID_3_" style="display:inline;">
		<path id="XMLID_12_" style="fill:#222221;" d="M201.991,387.765c-0.729,1.23-2.513,4.204-4.53,6.558
			c0.109-0.282,0.219-0.563,0.329-0.845c-0.478,0.626-0.937,1.182-1.377,1.667c0.037,0.042,0.081,0.075,0.117,0.118
			c0.108-0.091,0.202-0.195,0.316-0.282c0.015-0.012,0.033-0.015,0.049-0.025c-1.53,1.652-3.147,2.844-4.516,2.575
			c-3.475-0.683-2.539-9.763-2.446-11.983c0.729-17.438,4.601-34.967,8.484-52.039c8.741,0.012,14.731,2.741,21.112,8.777
			c0.361,0.341,1.036-0.073,0.745-0.539c-4.197-6.729-13.984-10.496-21.712-8.873c0.434-1.908,0.868-3.812,1.298-5.708
			c-0.31,0.035-0.606,0.226-0.817,0.655c-2.561,5.207-3.227,11.362-4.429,17.127c-1.305,6.26-2.624,12.517-3.927,18.778
			c-1.557,7.474-3.44,14.964-4.014,22.548c-0.764,3.006-1.592,6.023-2.285,9.054c-6.21,6.971-14.57,9.302-20.144,17.588
			c-6.318,9.392-8.444,22.395-6.361,34.712c-0.24,0.772-0.49,1.536-0.758,2.286c-2.521,7.056-6.207,10.71-10.657,15.182
			c-0.179,0.18-0.297,0.413-0.383,0.662c-2.307,1.016-4.722,1.571-7.215,1.528c-1.175-0.02-1.301,2.292-0.136,2.522
			c1.497,0.296,2.973,0.379,4.428,0.291c-0.719,0.487-1.429,0.998-2.114,1.576c-0.836,0.705-0.492,2.45,0.475,2.507
			c0.409,0.024,0.829-0.003,1.249-0.028c2.812,1.039,5.913,1.064,8.907,0.174c2.115-0.227,4.215-0.976,6.14-2.184
			c0.3-0.078,0.601-0.156,0.903-0.232c0.231-0.059,0.464-0.112,0.697-0.167c-0.274,0.255-0.554,0.511-0.81,0.762
			c-0.516,0.504-0.244,1.682,0.402,1.618c1.352-0.133,2.823-0.507,4.352-1.048c6.667,3.787,15.576,2.416,21.897-1.182
			c7.419-4.222,12.713-12.152,16.672-21.603c3.389-8.089,6.378-17.234,4.268-26.67c-1.499-6.708-5.057-12.478-6.375-19.207
			c2.144-4.213,3.556-9.327,5.221-13.558c2.474-6.285,4.959-12.562,7.344-18.893c3.131-8.313,8.271-18.544,9.553-28.419
			c-4.328,10.783-8.831,21.518-13.91,31.972C206.044,379.607,204.316,383.843,201.991,387.765z M186.025,401.052
			c0.301,0.009,0.665-0.128,0.921,0.053c3.29,2.331,6.54,2.311,9.748,2.881c-0.855,1.252-2.53,1.945-4.102,1.82
			c-1.759-0.139-3.994-0.694-5.374-1.871C186.35,403.195,185.911,402.149,186.025,401.052z M188.352,425.647
			c0.173,0.355,0.35,0.706,0.499,1.084c0.353,0.895,0.647,1.792,0.898,2.687C189.372,428.128,188.902,426.868,188.352,425.647z
			 M191.993,442.991c-0.508,0.414-1.003,0.632-1.303,0.537c0.023-0.058,0.05-0.112,0.073-0.17c0.637-2.754,1.166-5.832,1.343-8.73
			c-0.344-2.2-0.999-4.342-2.021-6.364c-0.048-0.095-0.105-0.179-0.155-0.273c1.067,1.356,2.225,2.668,2.835,4.463
			C193.723,435.275,194.67,440.787,191.993,442.991z M201.132,432.288c-0.189,1.92-1.707,8.787-2.797,8.482
			c-0.316-0.089-0.597-0.782-0.798-2.376c-0.956-7.571,2.05-15.98-3.217-22.666c0.438,0.02,0.763,0.204,1.115,0.459
			C200.455,419.822,201.704,426.46,201.132,432.288z"/>
		<path id="XMLID_16_" style="fill:#222221;" d="M303.595,33.784c-9.103-2.787-41.403,76.365-72.145,176.793
			c-11.661,38.096-24.578,77.364-31.494,116.585c0.812-4.603,14.775,1.595,16.683,3.062c4.66,3.583,6.078,7.362,5.304,13.318
			c12.708-31.664,27.767-74.824,42.471-122.86C295.157,120.248,312.699,36.571,303.595,33.784z"/>
	</g>
</g>
<g id="Layer_1_copy" style="display:none;">
	<g id="XMLID_1_" style="display:inline;">
		<path id="XMLID_9_" style="fill:#222221;" d="M305.052,467.284c-2.493,0.044-4.909-0.512-7.215-1.528
			c-0.086-0.249-0.204-0.482-0.383-0.662c-4.449-4.471-8.136-8.126-10.657-15.182c-0.268-0.749-0.518-1.513-0.758-2.286
			c2.083-12.317-0.043-25.32-6.361-34.712c-5.574-8.285-13.934-10.617-20.144-17.588c-0.693-3.031-1.521-6.049-2.285-9.054
			c-0.575-7.583-2.458-15.073-4.014-22.548c-1.304-6.261-2.623-12.517-3.927-18.778c-1.202-5.766-1.868-11.92-4.429-17.127
			c-0.211-0.43-0.508-0.62-0.817-0.655c0.429,1.896,0.863,3.8,1.298,5.708c-7.728-1.623-17.515,2.144-21.712,8.873
			c-0.291,0.466,0.384,0.88,0.745,0.539c6.381-6.036,12.371-8.764,21.112-8.777c3.883,17.072,7.754,34.601,8.484,52.039
			c0.093,2.221,1.03,11.3-2.446,11.983c-1.369,0.269-2.986-0.922-4.516-2.575c0.016,0.01,0.034,0.013,0.049,0.025
			c0.114,0.087,0.207,0.19,0.316,0.282c0.036-0.043,0.08-0.076,0.117-0.118c-0.44-0.485-0.899-1.041-1.377-1.667
			c0.11,0.282,0.219,0.563,0.329,0.845c-2.017-2.354-3.8-5.328-4.53-6.558c-2.325-3.922-4.053-8.158-6.042-12.251
			c-5.079-10.454-9.582-21.189-13.91-31.972c1.282,9.875,6.422,20.106,9.553,28.419c2.385,6.331,4.869,12.608,7.344,18.893
			c1.666,4.231,3.077,9.345,5.221,13.558c-1.318,6.729-4.876,12.499-6.375,19.207c-2.109,9.436,0.879,18.581,4.268,26.67
			c3.959,9.45,9.253,17.381,16.672,21.603c6.322,3.598,15.23,4.969,21.897,1.182c1.529,0.541,3,0.915,4.352,1.048
			c0.646,0.064,0.919-1.114,0.402-1.618c-0.256-0.25-0.537-0.507-0.81-0.762c0.233,0.055,0.466,0.109,0.697,0.167
			c0.302,0.077,0.602,0.155,0.903,0.232c1.926,1.208,4.026,1.957,6.14,2.184c2.993,0.89,6.094,0.866,8.907-0.174
			c0.42,0.024,0.84,0.052,1.249,0.028c0.967-0.057,1.311-1.801,0.475-2.507c-0.685-0.577-1.394-1.089-2.114-1.576
			c1.454,0.088,2.931,0.005,4.428-0.291C306.353,469.576,306.226,467.264,305.052,467.284z M256.702,403.936
			c-1.38,1.177-3.615,1.732-5.374,1.871c-1.572,0.125-3.248-0.568-4.102-1.82c3.208-0.571,6.458-0.55,9.748-2.881
			c0.256-0.182,0.62-0.044,0.921-0.053C258.01,402.149,257.57,403.195,256.702,403.936z M275.77,462.383
			c-0.099,0.043-0.472-0.391-1.015-1.089c-1.733-2.223-5.523-6.519-7.063-7.733c-4.778-3.765-7.899-7.361-9.189-12.168
			c1.442,4.061,5.065,5.306,10.507,9.77C270.253,452.184,279.259,460.852,275.77,462.383z M264.758,422.329
			c3.769,1.067,9.039,7.867,7.462,12.123c-0.194,0.524-0.339,0.911-0.865,1.166c-1.164-0.851-4.021-10.505-7.747-13.246
			C263.263,422.119,264.346,422.213,264.758,422.329z M278.415,436.926c-0.054,1.836-2.567,1.951-2.83,0.148
			c-0.799-5.477-0.247-10.01-3.078-14.862c-1.548-2.652-5.029-5.432-7.229-7.448c-2.509-2.299-2.735-3.711,1.26-2.401
			C275.546,415.315,278.658,428.69,278.415,436.926z"/>
		<path id="XMLID_32_" style="fill:#222221;" d="M227.282,330.224c1.908-1.467,15.871-7.665,16.683-3.062
			c-6.916-39.221-19.833-78.489-31.494-116.585c-30.742-100.428-63.042-179.579-72.145-176.793
			c-9.104,2.787,8.438,86.464,39.182,186.898c14.704,48.036,29.763,91.196,42.471,122.86
			C221.204,337.586,222.622,333.807,227.282,330.224z"/>
	</g>
</g>
<g id="Layer_1_copy_2">
	<g id="XMLID_18_">
		<path id="XMLID_25_" style="fill:#222221;" d="M144.566,345.706c-1.391-0.332-4.76-1.155-7.605-2.385
			c0.302,0.021,0.603,0.042,0.904,0.064c-0.739-0.271-1.406-0.545-2-0.821c-0.029,0.048-0.047,0.1-0.078,0.147
			c0.119,0.077,0.246,0.135,0.362,0.218c0.016,0.011,0.024,0.027,0.039,0.039c-2.031-0.972-3.648-2.164-3.796-3.551
			c-0.377-3.522,8.573-5.316,10.722-5.885c16.872-4.467,34.761-5.96,52.217-7.307c2.577,8.352,1.744,14.882-2.131,22.764
			c-0.219,0.446,0.376,0.968,0.735,0.552c5.185-6.001,5.884-16.465,2.046-23.366c1.951-0.15,3.898-0.3,5.836-0.451
			c-0.125-0.285-0.395-0.512-0.868-0.587c-5.732-0.904-11.808,0.282-17.671,0.842c-6.366,0.608-12.733,1.201-19.099,1.809
			c-7.6,0.727-15.312,1.146-22.725,2.843c-3.097,0.16-6.224,0.263-9.325,0.499c-8.496-3.867-22.164-14.76-31.726-17.631
			c-15.546-4.668-43.584,19.168-50.482-4.537c-0.328-1.128-2.575-0.564-2.45,0.617c0.161,1.517,0.519,2.952,1.033,4.315
			c-0.678-0.543-1.377-1.069-2.131-1.552c-0.921-0.59-2.485,0.255-2.253,1.196c0.098,0.398,0.249,0.791,0.396,1.185
			c-0.16,2.994,0.735,5.963,2.471,8.559c0.843,1.953,2.181,3.737,3.904,5.218c0.163,0.264,0.327,0.528,0.489,0.794
			c0.124,0.203,0.245,0.41,0.366,0.616c-0.324-0.186-0.653-0.378-0.967-0.549c-0.628-0.34-1.658,0.253-1.433,0.847
			C55.358,346.108,67.05,356.26,79,355.866c26.224-0.866,25.333-10.415,49.024-7.299c4.659,0.801,9.962,0.634,14.496,0.972
			c6.736,0.502,13.467,1.016,20.22,1.42c8.867,0.529,20.161,2.409,29.973,0.709c-11.58-0.941-23.168-2.063-34.657-3.818
			C153.559,347.162,149.001,346.765,144.566,345.706z M63.659,336.564c-1.112-0.733-3.719-2.266-5.54-2.913
			c-0.571-0.203-1.934-0.352-1.925-0.424c0.328-2.542,7.874,1.417,8.799,2.001c4.045,2.552,5.59,4.608,8.576,4.691
			C70.117,340.087,67.108,338.836,63.659,336.564z M103.834,333.502c-4.676-1.941-11.607,0.146-13.066-0.463
			c-0.377-0.578-0.34-0.887-0.288-1.304c0.419-3.386,8.329-2.024,12.304,0.747C103.219,332.785,104.266,333.682,103.834,333.502z
			 M111.865,331.4c-2.577-1.504-6.263-4.006-9.255-4.699c-5.474-1.268-9.639,0.603-15.107,1.461
			c-1.799,0.282-2.435-2.152-0.697-2.747c7.795-2.671,21.492-3.659,26.979,4.07C116.219,332.913,114.804,333.115,111.865,331.4z
			 M124.551,342.072c-0.388-1.721-0.52-4.02,0.196-5.687c0.45-1.048,1.319-1.778,2.401-1.993c0.08,0.29,0.319,0.597,0.222,0.896
			c-1.253,3.833-0.27,6.931,0.134,10.164C126.055,345.005,124.897,343.61,124.551,342.072z"/>
		<path id="XMLID_33_" style="fill:#222221;" d="M322.531,321.374c-39.841,0.143-81.172-0.567-120.682,4.442
			c4.637-0.588,2.852,14.584,2.016,16.841c-2.042,5.512-5.232,7.985-11.15,9.01c34.007,2.762,79.691,4.365,129.926,4.184
			c105.033-0.377,190.152-8.4,190.118-17.921C512.724,328.411,427.558,320.998,322.531,321.374z"/>
	</g>
</g>
</svg>
